<svg xmlns="http://www.w3.org/2000/svg" viewBox="0 0 512 512">
<style type="text/css">
                .st0 {
                    stroke: #000000;
                    stroke-width: 17px;
                }

            </style>
            <path d="M368,0H144c-26.5,0-48,21.5-48,48v416c0,26.5,21.5,48,48,48h224c26.5,0,48-21.5,48-48V48C416,21.5,394.5,0,368,0z M384,464
                c0,8.8-7.2,16-16,16H144c-8.8,0-16-7.2-16-16V48c0-8.8,7.2-16,16-16h224c8.8,0,16,7.2,16,16V464z M512,106v12c0,3.3-2.7,6-6,6h-18v6
                c0,3.3-2.7,6-6,6h-42V88h42c3.3,0,6,2.7,6,6v6h18C509.3,100,512,102.7,512,106z M512,202v12c0,3.3-2.7,6-6,6h-18v6c0,3.3-2.7,6-6,6
                h-42v-48h42c3.3,0,6,2.7,6,6v6h18C509.3,196,512,198.7,512,202z M512,298v12c0,3.3-2.7,6-6,6h-18v6c0,3.3-2.7,6-6,6h-42v-48h42
                c3.3,0,6,2.7,6,6v6h18C509.3,292,512,294.7,512,298z M512,394v12c0,3.3-2.7,6-6,6h-18v6c0,3.3-2.7,6-6,6h-42v-48h42c3.3,0,6,2.7,6,6
                v6h18C509.3,388,512,390.7,512,394z M30,376h42v48H30c-3.3,0-6-2.7-6-6v-6H6c-3.3,0-6-2.7-6-6v-12c0-3.3,2.7-6,6-6h18v-6
                C24,378.7,26.7,376,30,376z M30,280h42v48H30c-3.3,0-6-2.7-6-6v-6H6c-3.3,0-6-2.7-6-6v-12c0-3.3,2.7-6,6-6h18v-6
                C24,282.7,26.7,280,30,280z M30,184h42v48H30c-3.3,0-6-2.7-6-6v-6H6c-3.3,0-6-2.7-6-6v-12c0-3.3,2.7-6,6-6h18v-6
                C24,186.7,26.7,184,30,184z M30,88h42v48H30c-3.3,0-6-2.7-6-6v-6H6c-3.3,0-6-2.7-6-6v-12c0-3.3,2.7-6,6-6h18v-6
                C24,90.7,26.7,88,30,88z" />
            <path class="st0"
                d="M147.5,260.7c1-59.4,42.6-101.8,93.6-108.6c60.8-8.1,111.9,33.2,121.7,88c9.3,52-19.3,100.7-66.4,119.9
                c-4.1,1.7-6.3,0.7-7.9-3.4c-7.8-20.3-15.6-40.6-23.4-60.8c-1.4-3.5-0.4-5.8,3.1-7.4c10.6-4.8,17.2-12.9,19-24.4
                c2.7-17.1-9-33.1-26.1-35.7c-0.7-0.1-1.4-0.2-2.1-0.3c-17.1-1.5-31.4,10.4-33.9,26.1c-2.3,14.4,4.9,27.9,18.3,34
                c4.2,1.9,5,3.8,3.4,8.1c-7.8,20.4-15.7,40.8-23.5,61.2c-1.1,3-3.6,4.1-6.8,2.8c-23-8.9-44.4-26.7-57.3-52.1
                C148.3,286.8,148.2,269.9,147.5,260.7L147.5,260.7z M156.6,259.9c0.2,2.9,0.3,6.3,0.6,9.7c2.8,31.5,21.7,62.8,57.3,80.2
                c1.4,0.7,1.9,0.4,2.5-1c6.5-17.1,13.1-34.2,19.7-51.3c0.6-1.4,0.3-2.1-1.1-2.9c-13.8-8.7-20.7-21.2-20-37.6
                c0.4-9.5,4.1-17.7,10.4-24.6c13.1-14.3,33.7-17.4,50.6-7.7c13.9,8,21.7,23.6,19.8,39.6c-1.6,13.4-8.4,23.6-20,30.6
                c-1.2,0.7-1.5,1.3-1,2.6c6.7,17.2,13.2,34.3,19.8,51.5c0.5,1.4,1.1,1.7,2.5,1c15.5-7.3,28.5-17.6,38.6-31.5
                c15.2-21.1,21.5-44.6,18.5-70.5c-6-51.4-52.3-94-111.8-86.7C196.5,166.7,157.4,205.9,156.6,259.9L156.6,259.9z" />
</svg>
